<svg width="347" height="46" viewBox="0 0 347 46" fill="none" xmlns="http://www.w3.org/2000/svg">
<path d="M15.528 2.4C18.504 2.4 21.08 2.896 23.256 3.888C25.464 4.88 27.16 6.288 28.344 8.112C29.528 9.936 30.12 12.096 30.12 14.592C30.12 17.056 29.528 19.216 28.344 21.072C27.16 22.896 25.464 24.304 23.256 25.296C21.08 26.256 18.504 26.736 15.528 26.736H8.76V36H0.984V2.4H15.528ZM15.096 20.4C17.432 20.4 19.208 19.904 20.424 18.912C21.64 17.888 22.248 16.448 22.248 14.592C22.248 12.704 21.64 11.264 20.424 10.272C19.208 9.248 17.432 8.736 15.096 8.736H8.76V20.4H15.096ZM76.8968 10.176L67.5368 36H60.3368L54.5288 19.968L48.5288 36H41.3288L32.0168 10.176H39.0728L45.1688 27.648L51.5048 10.176H57.8408L63.9848 27.648L70.2728 10.176H76.8968ZM104.971 23.184C104.971 23.28 104.923 23.952 104.827 25.2H85.2908C85.6428 26.8 86.4748 28.064 87.7868 28.992C89.0988 29.92 90.7308 30.384 92.6828 30.384C94.0268 30.384 95.2108 30.192 96.2348 29.808C97.2908 29.392 98.2668 28.752 99.1628 27.888L103.147 32.208C100.715 34.992 97.1628 36.384 92.4908 36.384C89.5788 36.384 87.0028 35.824 84.7628 34.704C82.5228 33.552 80.7948 31.968 79.5788 29.952C78.3628 27.936 77.7548 25.648 77.7548 23.088C77.7548 20.56 78.3468 18.288 79.5308 16.272C80.7468 14.224 82.3948 12.64 84.4748 11.52C86.5868 10.368 88.9388 9.792 91.5308 9.792C94.0588 9.792 96.3468 10.336 98.3948 11.424C100.443 12.512 102.043 14.08 103.195 16.128C104.379 18.144 104.971 20.496 104.971 23.184ZM91.5788 15.456C89.8828 15.456 88.4588 15.936 87.3068 16.896C86.1548 17.856 85.4508 19.168 85.1948 20.832H97.9148C97.6588 19.2 96.9548 17.904 95.8028 16.944C94.6508 15.952 93.2428 15.456 91.5788 15.456ZM135.252 23.184C135.252 23.28 135.204 23.952 135.108 25.2H115.572C115.924 26.8 116.756 28.064 118.068 28.992C119.38 29.92 121.012 30.384 122.964 30.384C124.308 30.384 125.492 30.192 126.516 29.808C127.572 29.392 128.548 28.752 129.444 27.888L133.428 32.208C130.996 34.992 127.444 36.384 122.772 36.384C119.86 36.384 117.284 35.824 115.044 34.704C112.804 33.552 111.076 31.968 109.86 29.952C108.644 27.936 108.036 25.648 108.036 23.088C108.036 20.56 108.628 18.288 109.812 16.272C111.028 14.224 112.676 12.64 114.756 11.52C116.868 10.368 119.22 9.792 121.812 9.792C124.34 9.792 126.628 10.336 128.676 11.424C130.724 12.512 132.324 14.08 133.476 16.128C134.66 18.144 135.252 20.496 135.252 23.184ZM121.86 15.456C120.164 15.456 118.74 15.936 117.588 16.896C116.436 17.856 115.732 19.168 115.476 20.832H128.196C127.94 19.2 127.236 17.904 126.084 16.944C124.932 15.952 123.524 15.456 121.86 15.456ZM156.893 34.752C156.157 35.296 155.245 35.712 154.157 36C153.101 36.256 151.981 36.384 150.797 36.384C147.725 36.384 145.341 35.6 143.645 34.032C141.981 32.464 141.149 30.16 141.149 27.12V16.512H137.165V10.752H141.149V4.464H148.637V10.752H155.069V16.512H148.637V27.024C148.637 28.112 148.909 28.96 149.453 29.568C150.029 30.144 150.829 30.432 151.853 30.432C153.037 30.432 154.045 30.112 154.877 29.472L156.893 34.752ZM186.26 10.176L174.596 37.584C173.412 40.56 171.94 42.656 170.18 43.872C168.452 45.088 166.356 45.696 163.892 45.696C162.548 45.696 161.22 45.488 159.908 45.072C158.596 44.656 157.524 44.08 156.692 43.344L159.428 38.016C160.004 38.528 160.66 38.928 161.396 39.216C162.164 39.504 162.916 39.648 163.652 39.648C164.676 39.648 165.508 39.392 166.148 38.88C166.788 38.4 167.364 37.584 167.876 36.432L167.972 36.192L156.788 10.176H164.516L171.764 27.696L179.06 10.176H186.26ZM228.109 18.528C230.029 19.136 231.533 20.16 232.621 21.6C233.709 23.008 234.253 24.752 234.253 26.832C234.253 29.776 233.101 32.048 230.797 33.648C228.525 35.216 225.197 36 220.813 36H203.437V2.4H219.853C223.949 2.4 227.085 3.184 229.261 4.752C231.469 6.32 232.573 8.448 232.573 11.136C232.573 12.768 232.173 14.224 231.373 15.504C230.605 16.784 229.517 17.792 228.109 18.528ZM211.165 8.256V16.176H218.893C220.813 16.176 222.269 15.84 223.261 15.168C224.253 14.496 224.749 13.504 224.749 12.192C224.749 10.88 224.253 9.904 223.261 9.264C222.269 8.592 220.813 8.256 218.893 8.256H211.165ZM220.237 30.144C222.285 30.144 223.821 29.808 224.845 29.136C225.901 28.464 226.429 27.424 226.429 26.016C226.429 23.232 224.365 21.84 220.237 21.84H211.165V30.144H220.237ZM250.028 9.792C254.028 9.792 257.1 10.752 259.244 12.672C261.388 14.56 262.46 17.424 262.46 21.264V36H255.452V32.784C254.044 35.184 251.42 36.384 247.58 36.384C245.596 36.384 243.868 36.048 242.396 35.376C240.956 34.704 239.852 33.776 239.084 32.592C238.316 31.408 237.932 30.064 237.932 28.56C237.932 26.16 238.828 24.272 240.62 22.896C242.444 21.52 245.244 20.832 249.02 20.832H254.972C254.972 19.2 254.476 17.952 253.484 17.088C252.492 16.192 251.004 15.744 249.02 15.744C247.644 15.744 246.284 15.968 244.94 16.416C243.628 16.832 242.508 17.408 241.58 18.144L238.892 12.912C240.3 11.92 241.98 11.152 243.932 10.608C245.916 10.064 247.948 9.792 250.028 9.792ZM249.452 31.344C250.732 31.344 251.868 31.056 252.86 30.48C253.852 29.872 254.556 28.992 254.972 27.84V25.2H249.836C246.764 25.2 245.228 26.208 245.228 28.224C245.228 29.184 245.596 29.952 246.332 30.528C247.1 31.072 248.14 31.344 249.452 31.344ZM280.325 25.872L276.725 29.424V36H269.237V0.383998H276.725V20.544L287.669 10.176H296.597L285.845 21.12L297.557 36H288.485L280.325 25.872ZM325.096 23.184C325.096 23.28 325.048 23.952 324.952 25.2H305.416C305.768 26.8 306.6 28.064 307.912 28.992C309.224 29.92 310.856 30.384 312.808 30.384C314.152 30.384 315.336 30.192 316.36 29.808C317.416 29.392 318.392 28.752 319.288 27.888L323.272 32.208C320.84 34.992 317.288 36.384 312.616 36.384C309.704 36.384 307.128 35.824 304.888 34.704C302.648 33.552 300.92 31.968 299.704 29.952C298.488 27.936 297.88 25.648 297.88 23.088C297.88 20.56 298.472 18.288 299.656 16.272C300.872 14.224 302.52 12.64 304.6 11.52C306.712 10.368 309.064 9.792 311.656 9.792C314.184 9.792 316.472 10.336 318.52 11.424C320.568 12.512 322.168 14.08 323.32 16.128C324.504 18.144 325.096 20.496 325.096 23.184ZM311.704 15.456C310.008 15.456 308.584 15.936 307.432 16.896C306.28 17.856 305.576 19.168 305.32 20.832H318.04C317.784 19.2 317.08 17.904 315.928 16.944C314.776 15.952 313.368 15.456 311.704 15.456ZM337.233 13.584C338.129 12.336 339.329 11.392 340.833 10.752C342.369 10.112 344.129 9.792 346.113 9.792V16.704C345.281 16.64 344.721 16.608 344.433 16.608C342.289 16.608 340.609 17.216 339.393 18.432C338.177 19.616 337.569 21.408 337.569 23.808V36H330.081V10.176H337.233V13.584Z" fill="#F2C44C"/>
</svg>
